<?xml version="1.0" encoding="UTF-8" standalone="no"?>
<svg
   xmlns:dc="http://purl.org/dc/elements/1.1/"
   xmlns:cc="http://creativecommons.org/ns#"
   xmlns:rdf="http://www.w3.org/1999/02/22-rdf-syntax-ns#"
   xmlns:svg="http://www.w3.org/2000/svg"
   xmlns="http://www.w3.org/2000/svg"
   viewBox="0 0 131.50667 142.70667"
   height="142.70667"
   width="131.50667"
   xml:space="preserve"
   id="svg2"
   version="1.1"><metadata
     id="metadata8"><rdf:RDF><cc:Work
         rdf:about=""><dc:format>image/svg+xml</dc:format><dc:type
           rdf:resource="http://purl.org/dc/dcmitype/StillImage" /></cc:Work></rdf:RDF></metadata><defs
     id="defs6" /><g
     transform="matrix(1.3333333,0,0,-1.3333333,0,142.70667)"
     id="g10"><g
       transform="scale(0.1)"
       id="g12"><path
         id="path14"
         style="fill:#233c72;fill-opacity:1;fill-rule:nonzero;stroke:none"
         d="m 493.16,651.219 c -63.988,0 -116.043,-52.059 -116.043,-116.039 0,-63.989 52.055,-116.047 116.043,-116.047 63.988,0 116.039,52.058 116.039,116.047 0,63.98 -52.051,116.039 -116.039,116.039 z m 0,-252.086 c -75.015,0 -136.043,61.023 -136.043,136.047 0,75.011 61.028,136.039 136.043,136.039 75.016,0 136.039,-61.028 136.039,-136.039 0,-75.024 -61.023,-136.047 -136.039,-136.047" /><path
         id="path16"
         style="fill:#233c72;fill-opacity:1;fill-rule:nonzero;stroke:none"
         d="m 682.207,0 v 0 c -5.527,0 -10,4.48047 -10,10 l 0.012,137.895 c 0.008,35.625 16.101,68.64 44.14,90.585 l 223.309,174.762 c 27.258,20.754 34.738,58.957 16.77,85.254 -9.563,14.008 -24.004,23.195 -40.676,25.891 -16.719,2.715 -33.282,-1.449 -46.727,-11.68 L 625.996,328.957 C 547.773,269.836 438.551,269.875 360.41,329.074 L 121.172,510.258 c -25.129,19.133 -60.0587,18.738 -81.2697,-0.93 -13.6718,-12.676 -20.7148,-29.726 -19.832,-48 0.875,-18.023 9.6055,-34.637 23.961,-45.562 L 270.055,238.48 c 27.988,-21.957 44.039,-54.953 44.039,-90.531 L 314.078,10 c 0,-5.53125 -4.476,-10 -10,-10 v 0 c -5.523,0 -10,4.48047 -10,10 l 0.016,137.949 c 0,29.399 -13.262,56.653 -36.383,74.785 L 31.7969,399.934 C 12.8477,414.367 1.25,436.418 0.09375,460.363 c -1.15625,23.914 8.39844,47.11 26.21485,63.633 28.2227,26.172 74.2144,27.133 106.9614,2.188 L 372.48,345.012 c 71.059,-53.797 170.333,-53.836 241.458,-0.098 l 243.007,183.727 c 17.832,13.57 39.871,19.082 62.012,15.492 22.129,-3.578 41.309,-15.781 54.004,-34.348 23.867,-34.949 14.414,-85.359 -21.074,-112.371 L 728.684,222.727 C 705.52,204.602 692.227,177.324 692.219,147.895 L 692.207,10 c 0,-5.53125 -4.48,-10 -10,-10" /><path
         id="path18"
         style="fill:#233c72;fill-opacity:1;fill-rule:nonzero;stroke:none"
         d="m 65.2227,607.441 c -3.4297,0 -6.7696,1.766 -8.6289,4.934 C 16.7578,680.105 -2.21094,747.844 0.207031,813.715 5.03906,945.512 111.813,1057.77 243.277,1069.29 c 100.051,8.77 196.313,-38.32 249.883,-120.868 53.57,82.548 149.906,129.648 249.879,120.868 131.473,-11.52 238.242,-123.778 243.066,-255.575 2.411,-65.594 -16.406,-133.07 -55.917,-200.555 -2.805,-4.765 -8.946,-6.359 -13.684,-3.574 -4.766,2.789 -6.367,8.918 -3.582,13.684 37.566,64.148 55.469,127.976 53.203,189.71 -4.473,121.899 -103.223,225.73 -224.824,236.38 -98.039,8.58 -191.914,-40.56 -239.418,-125.161 -3.547,-6.297 -13.899,-6.297 -17.442,0 C 436.934,1008.8 342.926,1057.9 245.027,1049.36 123.426,1038.71 24.6641,934.879 20.1953,812.98 17.9219,750.984 35.9648,686.902 73.8281,622.512 c 2.8047,-4.762 1.211,-10.891 -3.5468,-13.688 -1.5938,-0.937 -3.336,-1.383 -5.0586,-1.383" /></g></g></svg>