<?xml version="1.0" encoding="UTF-8" standalone="no"?>
<svg
   xmlns:dc="http://purl.org/dc/elements/1.1/"
   xmlns:cc="http://creativecommons.org/ns#"
   xmlns:rdf="http://www.w3.org/1999/02/22-rdf-syntax-ns#"
   xmlns:svg="http://www.w3.org/2000/svg"
   xmlns="http://www.w3.org/2000/svg"
   viewBox="0 0 153.92 131.50667"
   height="131.50667"
   width="153.92"
   xml:space="preserve"
   id="svg2"
   version="1.1"><metadata
     id="metadata8"><rdf:RDF><cc:Work
         rdf:about=""><dc:format>image/svg+xml</dc:format><dc:type
           rdf:resource="http://purl.org/dc/dcmitype/StillImage" /></cc:Work></rdf:RDF></metadata><defs
     id="defs6" /><g
     transform="matrix(1.3333333,0,0,-1.3333333,0,131.50667)"
     id="g10"><g
       transform="scale(0.1)"
       id="g12"><path
         id="path14"
         style="fill:#233c72;fill-opacity:1;fill-rule:nonzero;stroke:none"
         d="m 20,682.227 c 0,156.652 126.191,284.097 281.301,284.097 101.336,0 194.929,-54.722 244.883,-142.988 v -49.258 c 0,-3.961 -1.93,-7.324 -5.289,-9.234 -3.688,-2.106 -8.184,-1.985 -11.997,0.293 -12.378,7.379 -24.402,11.117 -35.746,11.117 -40.265,0 -73.031,-32.758 -73.031,-73.024 0,-40.261 32.766,-73.015 73.031,-73.015 11.356,0 23.379,3.738 35.746,11.117 3.832,2.281 8.309,2.398 11.997,0.293 3.359,-1.906 5.289,-5.273 5.289,-9.234 V 535.18 c 0,-6.071 -4.938,-11.008 -11.008,-11.008 h -97.231 c -11.191,0 -21.148,-5.766 -26.629,-15.41 -5.609,-9.879 -5.414,-22.184 0.508,-32.117 5.504,-9.235 8.297,-17.805 8.297,-25.493 0,-29.238 -23.789,-53.027 -53.027,-53.027 -29.242,0 -53.031,23.789 -53.031,53.027 0,7.688 2.792,16.258 8.296,25.489 5.922,9.929 6.121,22.238 0.512,32.113 -5.476,9.652 -15.433,15.418 -26.633,15.418 H 53.7383 C 31.3477,576.93 20,630.074 20,682.227 Z M 305.48,498.883 c 2.094,-3.688 1.981,-8.168 -0.3,-11.992 -7.375,-12.371 -11.117,-24.391 -11.117,-35.739 0,-40.265 32.761,-73.027 73.031,-73.027 40.269,0 73.027,32.762 73.027,73.027 0,11.348 -3.738,23.368 -11.117,35.739 -2.281,3.824 -2.395,8.304 -0.297,11.992 1.906,3.359 5.277,5.289 9.238,5.289 h 97.231 c 17.094,0 31.008,13.91 31.008,31.008 v 97.211 c 0,11.195 -5.762,21.144 -15.411,26.629 -9.882,5.609 -22.187,5.414 -32.121,-0.508 -9.226,-5.504 -17.808,-8.297 -25.5,-8.297 -29.242,0 -53.031,23.785 -53.031,53.015 0,29.239 23.789,53.024 53.031,53.024 7.688,0 16.266,-2.793 25.5,-8.293 9.942,-5.926 22.243,-6.125 32.121,-0.512 9.649,5.485 15.411,15.438 15.411,26.629 v 51.863 c 0,1.696 -0.43,3.364 -1.258,4.844 C 511.777,926.723 410.762,986.324 301.301,986.324 135.16,986.324 0,849.906 0,682.227 0,625.313 12.7891,567.41 38.0195,510.141 c 1.5938,-3.629 5.1836,-5.969 9.1485,-5.969 h 249.07 c 3.965,0 7.336,-1.93 9.242,-5.289" /><path
         id="path16"
         style="fill:#233c72;fill-opacity:1;fill-rule:nonzero;stroke:none"
         d="M 629.211,26.0273 V 219.395 c 0,4.257 2.281,7.941 6.109,9.855 1.782,0.887 6.399,2.566 11.106,-0.957 16.164,-12.094 31.75,-18.215 46.301,-18.215 40.261,0 73.027,32.754 73.027,73.016 0,40.265 -32.766,73.019 -73.027,73.019 -14.563,0 -30.149,-6.133 -46.301,-18.222 -4.696,-3.516 -9.324,-1.836 -11.106,-0.95 -3.828,1.914 -6.109,5.598 -6.109,9.856 v 104.355 c 0,6.067 4.937,11.004 11.004,11.004 h 118.223 c 11.191,0 21.14,5.766 26.628,15.41 5.61,9.879 5.414,22.184 -0.515,32.122 -5.508,9.222 -8.301,17.796 -8.301,25.492 0,29.234 23.789,53.019 53.027,53.019 29.239,0 53.02,-23.785 53.02,-53.019 0,-7.692 -2.793,-16.27 -8.293,-25.496 -5.93,-9.934 -6.121,-22.243 -0.52,-32.121 5.481,-9.641 15.434,-15.407 26.621,-15.407 H 1103.54 C 1004.81,225.852 698.867,61.0625 629.211,26.0273 Z M 1127.58,468.902 c 17.75,46.879 26.8,93.918 26.8,140.61 0,161.445 -130.14,292.789 -290.095,292.789 -92.09,0 -176.68,-42.379 -232.066,-116.262 -3.321,-4.418 -2.422,-10.687 2,-14.004 4.414,-3.316 10.691,-2.41 13.996,2.004 51.59,68.805 130.34,108.262 216.07,108.262 148.925,0 270.095,-122.375 270.095,-272.789 0,-44.262 -8.46,-86.793 -23.11,-127.356 H 900.105 c -5.417,0 -8.101,3.313 -9.226,5.285 -2.09,3.688 -1.981,8.172 0.293,11.997 7.383,12.367 11.125,24.394 11.125,35.742 0,40.265 -32.754,73.019 -73.02,73.019 -40.261,0 -73.027,-32.754 -73.027,-73.019 0,-11.356 3.75,-23.383 11.133,-35.742 2.273,-3.825 2.383,-8.305 0.293,-11.993 -1.914,-3.359 -5.274,-5.289 -9.238,-5.289 H 640.215 c -17.102,0 -31.004,-13.902 -31.004,-31.004 V 346.797 c 0,-11.809 6.57,-22.442 17.156,-27.734 10.442,-5.247 22.727,-4.161 32.031,2.812 12.625,9.441 24.18,14.238 34.329,14.238 29.238,0 53.027,-23.777 53.027,-53.019 0,-29.239 -23.789,-53.016 -53.027,-53.016 -10.149,0 -21.692,4.785 -34.321,14.227 -9.304,6.965 -21.57,8.058 -32.039,2.824 -10.586,-5.293 -17.156,-15.918 -17.156,-27.734 V 25.9961 C 580.18,40.5352 510.086,77.4922 431.688,132.344 337.527,198.23 211.773,304.141 147.41,434.57 c -2.437,4.95 -8.445,6.993 -13.39,4.539 -4.957,-2.437 -6.989,-8.433 -4.547,-13.386 C 195.762,291.387 324.348,183.008 420.535,115.742 524.438,43.0859 614.121,1.33984 615.012,0.925781 615.055,0.90625 615.105,0.914063 615.148,0.894531 616.395,0.339844 617.754,0 619.211,0 c 1.445,0 2.801,0.335938 4.043,0.886719 0.047,0.019531 0.098,0.007812 0.144,0.03125 1.329,0.613281 133.915,62.363331 264.649,167.168031 119.213,95.574 199.923,197.223 239.043,299.648 0.19,0.383 0.34,0.762 0.49,1.168" /></g></g></svg>