<svg xmlns="http://www.w3.org/2000/svg" xmlns:xlink="http://www.w3.org/1999/xlink" width="290" height="79.241" viewBox="0 0 290 79.241">
  <defs>
    <clipPath id="clip-path">
      <rect id="Rectangle_91" data-name="Rectangle 91" width="290" height="79.241" fill="none"/>
    </clipPath>
  </defs>
  <g id="Group_147" data-name="Group 147" opacity="0.9">
    <g id="Group_128" data-name="Group 128" clip-path="url(#clip-path)">
      <path id="Path_132" data-name="Path 132" d="M977.738,108.179c19.049.32,27.789-5.658,34.27-9.075a24.043,24.043,0,0,1-3.83-.427l3.143-2.348-3.732-.107,2.652-2.775-2.948.107,2.16-1.708-3.141.106a10.307,10.307,0,0,0,2.552-2.455c-18.383,6.524-24.94,2.455-29.261,1.068,1.081-5.445,9.231-15.479,17.97-17.614-13.944-3.843-27.986,6.832-32.9,10.782-2.749-2.135-5.2-6.512-5.4-8.754s-3.535-5.977-7.168-4.589c-2.848,1.493-6.579.107-6.579.107s2.063,1.708,4.811,6.724a32.679,32.679,0,0,0,9.723,21.245C963.2,121.949,983.532,129.1,996.3,132.2c-12.275-7.258-16.791-18.575-18.559-24.019M954.761,74.232a.908.908,0,1,1,.883-.908.9.9,0,0,1-.883.908" transform="translate(-732.941 -52.957)" fill="#64c1be"/>
      <path id="Path_133" data-name="Path 133" d="M451.91,116.47l3.977-9.688,3.805,9.927Zm-7.7,10.009H453.4v-1.336a9.466,9.466,0,0,1-2.386-.327,1.922,1.922,0,0,1-1.2-1.227,2.251,2.251,0,0,1-.028-1.833q.263-.694,1.176-3.07h9.322l1.018,2.392q.332.8.529,1.37a4.937,4.937,0,0,1,.317,1.4c0,.7-.7.919-1.123,1.085a4.23,4.23,0,0,1-1.932.318v1.228h11.575V125.25a2.409,2.409,0,0,1-2.144-.971,35.031,35.031,0,0,1-1.887-4.307l-8.375-19.748h-1.45l-8.589,20.619a16.274,16.274,0,0,1-1.747,3.335,2.664,2.664,0,0,1-2.263,1.072Z" transform="translate(-344.337 -75.727)" fill="#fff"/>
      <path id="Path_134" data-name="Path 134" d="M569.154,154.477a4.637,4.637,0,0,0,1.874-.513,2.107,2.107,0,0,0,.443-1.575v-9.606a2.315,2.315,0,0,0-.36-1.5,5.475,5.475,0,0,0-2.154-.545v-1.5l6.82-.021.016,3.211a11.28,11.28,0,0,1,2.569-2.7,6.67,6.67,0,0,1,3.662-.914,4.747,4.747,0,0,1,3.421,1.164q1.214,1.164,1.214,4.088v8.464a2.014,2.014,0,0,0,.391,1.492,4.894,4.894,0,0,0,1.8.454v.854h-8.54v-.854a2.609,2.609,0,0,0,1.253-.511c.222-.215.829-.7.927-1.191V144.3a4.422,4.422,0,0,0-.266-1.535,2.553,2.553,0,0,0-2.2-1.216,4.49,4.49,0,0,0-2.348.608,6.22,6.22,0,0,0-1.755,2.749l.082,7.944a1.252,1.252,0,0,0,.643,1.116,3.63,3.63,0,0,0,1.451.511v.854h-8.945Z" transform="translate(-441.035 -104.884)" fill="#fff"/>
      <path id="Path_135" data-name="Path 135" d="M678.107,138.193a9.063,9.063,0,0,1,.484-3.358,1.9,1.9,0,0,1,1.945-1.159,1.937,1.937,0,0,1,1.88,1.081,8.007,8.007,0,0,1,.55,3.436,8.626,8.626,0,0,1-.522,3.4,1.91,1.91,0,0,1-1.908,1.157,2.048,2.048,0,0,1-2.068-1.544,9.3,9.3,0,0,1-.361-3.011m-2.159,14.74a1.878,1.878,0,0,1,.452-1.2,5.887,5.887,0,0,1,.835-.774h6.1a5.14,5.14,0,0,1,2.6.464,1.53,1.53,0,0,1,.717,1.374q0,1.567-2.523,2.148a15.608,15.608,0,0,1-3.412.31,8.073,8.073,0,0,1-3.55-.62,1.886,1.886,0,0,1-1.224-1.7m-3.285.236q0,1.955,3.122,2.748a21.492,21.492,0,0,0,9.8-.171q3.993-1.29,3.994-4.717a3.692,3.692,0,0,0-2.66-3.675,9.818,9.818,0,0,0-3.437-.559l-2.406-.039q-.489,0-1.375-.048c-.591-.031-.978-.061-1.158-.086a1.424,1.424,0,0,1-.85-.346,1.075,1.075,0,0,1-.308-.827,1.374,1.374,0,0,1,.614-1.134,2.667,2.667,0,0,1,1.138-.558,5.006,5.006,0,0,1,.516.02c.113.014.356.02.731.02a12.253,12.253,0,0,0,4.315-.658,4.512,4.512,0,0,0,3.306-4.528,4.769,4.769,0,0,0-.39-1.935c-.261-.593-1.146-1.758-1.253-2.211,0,0,.987-.9,1.243-1.187,1.13,1.809,1.338,1.917,2.283,1.83,2.712-.689.935-3.811.192-3.959-2.84-.564-4.972,2.453-4.972,2.453a14.743,14.743,0,0,0-2.177-.836,11.291,11.291,0,0,0-2.391-.235,8.778,8.778,0,0,0-5.491,1.564,4.973,4.973,0,0,0-.872,7.2,7.58,7.58,0,0,0,3.038,2.065v.229a9.055,9.055,0,0,0-2.655,1.464,3.078,3.078,0,0,0-1.36,2.5,2.506,2.506,0,0,0,.862,1.984,5.644,5.644,0,0,0,1.563.808v.228a3.518,3.518,0,0,0-2.3,1.037,2.474,2.474,0,0,0-.662,1.557" transform="translate(-521.424 -99.041)" fill="#fff"/>
      <path id="Path_136" data-name="Path 136" d="M769.091,145.4a14.513,14.513,0,0,1,.622-4.4,2.027,2.027,0,0,1,2.03-1.5,1.877,1.877,0,0,1,1.93,1.305,15.435,15.435,0,0,1,.519,4.59Zm-5.286,1.839q0,4.689,2.453,6.821a7.888,7.888,0,0,0,5.26,2.132,8.294,8.294,0,0,0,3.457-.683,10.125,10.125,0,0,0,4.089-3.878l-.872-.524a11.275,11.275,0,0,1-1.805,1.631,4.45,4.45,0,0,1-2.532.8q-2.811,0-3.927-3.02a12.857,12.857,0,0,1-.745-3.825h9.7a12.152,12.152,0,0,0-.128-1.464,9.962,9.962,0,0,0-.93-3.312,6.455,6.455,0,0,0-2.543-2.662,6.93,6.93,0,0,0-3.527-.956,7.633,7.633,0,0,0-5.616,2.344,8.941,8.941,0,0,0-2.329,6.59" transform="translate(-592.075 -104.502)" fill="#fff"/>
      <path id="Path_137" data-name="Path 137" d="M850.237,127.934a3.8,3.8,0,0,0,1.555-.65,2.138,2.138,0,0,0,.458-1.627V106.3a2.194,2.194,0,0,0-.427-1.611,3.523,3.523,0,0,0-1.586-.614v-.932h6.768v22.518c0,.821,1.136,1.36,1.433,1.613a1.785,1.785,0,0,0,1.075.664v.932h-9.275Z" transform="translate(-659.074 -77.928)" fill="#fff"/>
      <path id="Path_138" data-name="Path 138" d="M905.618,149.879h1.039a5.687,5.687,0,0,0,2.056,3.655,8.248,8.248,0,0,0,3.977,1.06,3.061,3.061,0,0,0,2.13-.628c.454-.419,1.274-.974,1.274-1.665,0-.638.051-1.191-.44-1.656a8.609,8.609,0,0,0-1.595-.8l-4.253-1.312a8.415,8.415,0,0,1-3.132-2.266,4.483,4.483,0,0,1-.964-2.883,4.95,4.95,0,0,1,1.526-3.618,5.757,5.757,0,0,1,4.267-1.531,9.651,9.651,0,0,1,2.536.367c1.044.287.967.819,1.6.819.306,0,.6-.515.727-.649a1.579,1.579,0,0,0,.321-.537h.813v5.206h-.9a6.167,6.167,0,0,0-1.776-2.927,4.2,4.2,0,0,0-2.881-1.1,5.434,5.434,0,0,0-2.869.735c-.42.452-.844.881-.844,1.4,0,.427-.1,1.152.267,1.577a7.105,7.105,0,0,0,3.2,1.143l3.147.847a10.791,10.791,0,0,1,2.794,1.731,4.407,4.407,0,0,1,1.175,3.482,5.5,5.5,0,0,1-1.415,3.751c-1.009,1.16-3.114,1.742-5.132,1.742a7.81,7.81,0,0,1-1.513-.15,15.281,15.281,0,0,1-1.879-.525l-.642-.2c-.233-.079-.375-.125-.431-.139a.973.973,0,0,0-.211-.02.726.726,0,0,0-.541.239,3.6,3.6,0,0,0-.522.793h-.9Z" transform="translate(-702.004 -104.449)" fill="#fff"/>
      <path id="Path_139" data-name="Path 139" d="M425.182,245V238.93h1.142v5.031h2.836V245Z" transform="translate(-329.586 -180.529)" fill="#fff"/>
      <rect id="Rectangle_84" data-name="Rectangle 84" width="1.141" height="6.126" transform="translate(100.338 58.348)" fill="#fff"/>
      <path id="Path_140" data-name="Path 140" d="M455.552,244.837l-1.968-6.126h1.233l1.4,4.536,1.374-4.536h1.21l-2,6.126Z" transform="translate(-351.602 -180.364)" fill="#fff"/>
      <rect id="Rectangle_85" data-name="Rectangle 85" width="1.141" height="6.126" transform="translate(107.766 58.348)" fill="#fff"/>
      <path id="Path_141" data-name="Path 141" d="M489.192,244.837v-6.126H490.3l2.318,4.1v-4.1h1.056v6.126H492.53l-2.283-4.016v4.016Z" transform="translate(-379.205 -180.364)" fill="#fff"/>
      <path id="Path_142" data-name="Path 142" d="M516.378,242.267v-1.041h2.455v2.457a3.061,3.061,0,0,1-1.035.66,3.52,3.52,0,0,1-1.373.284,2.888,2.888,0,0,1-1.541-.4,2.507,2.507,0,0,1-.988-1.156,4.043,4.043,0,0,1-.33-1.637,3.787,3.787,0,0,1,.369-1.7,2.6,2.6,0,0,1,1.08-1.145,2.7,2.7,0,0,1,1.347-.3,2.535,2.535,0,0,1,1.638.479,2.192,2.192,0,0,1,.757,1.322l-1.129.227a1.316,1.316,0,0,0-.447-.713,1.285,1.285,0,0,0-.823-.261,1.482,1.482,0,0,0-1.187.516,2.309,2.309,0,0,0-.44,1.533,2.566,2.566,0,0,0,.447,1.645,1.443,1.443,0,0,0,1.173.548,1.824,1.824,0,0,0,.719-.154,2.408,2.408,0,0,0,.619-.373v-.782Z" transform="translate(-398.099 -180.037)" fill="#fff"/>
      <path id="Path_143" data-name="Path 143" d="M549.514,242.408l.761-2.268.8,2.268Zm1.37-3.7h-1.206l-2.184,6.126H548.7l.465-1.388h2.271l.488,1.388h1.229Z" transform="translate(-424.399 -180.365)" fill="#fff"/>
      <path id="Path_144" data-name="Path 144" d="M574,242.521l1.1-.121a1.529,1.529,0,0,0,.406.891,1.154,1.154,0,0,0,.822.284,1.19,1.19,0,0,0,.827-.253.779.779,0,0,0,.279-.592.588.588,0,0,0-.118-.37.906.906,0,0,0-.408-.265c-.132-.05-.436-.14-.907-.269a2.934,2.934,0,0,1-1.279-.606,1.715,1.715,0,0,1-.273-2.109,1.555,1.555,0,0,1,.7-.62,2.616,2.616,0,0,1,1.108-.213,2.236,2.236,0,0,1,1.594.508,1.876,1.876,0,0,1,.562,1.359l-1.141.039a1.083,1.083,0,0,0-.311-.673,1.065,1.065,0,0,0-.715-.207,1.215,1.215,0,0,0-.772.221.457.457,0,0,0-.179.379.481.481,0,0,0,.168.37,2.819,2.819,0,0,0,1.041.41,5.2,5.2,0,0,1,1.223.441,1.663,1.663,0,0,1,.621.626,1.976,1.976,0,0,1,.224.979,1.94,1.94,0,0,1-.269.99,1.653,1.653,0,0,1-.761.685,2.934,2.934,0,0,1-1.224.223,2.3,2.3,0,0,1-1.641-.538,2.424,2.424,0,0,1-.684-1.569" transform="translate(-444.946 -180.037)" fill="#fff"/>
      <path id="Path_145" data-name="Path 145" d="M597.33,242.521l1.1-.121a1.523,1.523,0,0,0,.405.891,1.156,1.156,0,0,0,.822.284,1.192,1.192,0,0,0,.827-.253.778.778,0,0,0,.278-.592.586.586,0,0,0-.118-.37.913.913,0,0,0-.408-.265q-.2-.075-.907-.269a2.925,2.925,0,0,1-1.278-.606,1.657,1.657,0,0,1-.518-1.233,1.679,1.679,0,0,1,.244-.876,1.555,1.555,0,0,1,.7-.62,2.616,2.616,0,0,1,1.108-.213,2.239,2.239,0,0,1,1.594.508,1.873,1.873,0,0,1,.562,1.359l-1.141.039a1.071,1.071,0,0,0-.312-.673,1.06,1.06,0,0,0-.715-.207,1.215,1.215,0,0,0-.771.221.459.459,0,0,0-.18.379.482.482,0,0,0,.169.37,2.791,2.791,0,0,0,1.041.41,5.249,5.249,0,0,1,1.223.441,1.661,1.661,0,0,1,.62.626,1.964,1.964,0,0,1,.224.979,1.942,1.942,0,0,1-.269.99,1.648,1.648,0,0,1-.761.685,2.934,2.934,0,0,1-1.225.223,2.294,2.294,0,0,1-1.638-.538,2.419,2.419,0,0,1-.684-1.569" transform="translate(-463.029 -180.037)" fill="#fff"/>
      <rect id="Rectangle_86" data-name="Rectangle 86" width="1.142" height="6.126" transform="translate(139.801 58.348)" fill="#fff"/>
      <path id="Path_146" data-name="Path 146" d="M630.363,242.521l1.1-.121a1.522,1.522,0,0,0,.406.891,1.156,1.156,0,0,0,.823.284,1.192,1.192,0,0,0,.826-.253.777.777,0,0,0,.277-.592.586.586,0,0,0-.116-.37.915.915,0,0,0-.408-.265q-.2-.075-.908-.269a2.947,2.947,0,0,1-1.279-.606,1.716,1.716,0,0,1-.273-2.109,1.56,1.56,0,0,1,.7-.62,2.613,2.613,0,0,1,1.108-.213,2.238,2.238,0,0,1,1.595.508,1.878,1.878,0,0,1,.562,1.359l-1.141.039a1.089,1.089,0,0,0-.311-.673,1.069,1.069,0,0,0-.717-.207,1.208,1.208,0,0,0-.769.221.458.458,0,0,0-.18.379.478.478,0,0,0,.169.37,2.807,2.807,0,0,0,1.042.41,5.249,5.249,0,0,1,1.223.441,1.655,1.655,0,0,1,.619.626,2.086,2.086,0,0,1-.045,1.969,1.658,1.658,0,0,1-.76.685,2.949,2.949,0,0,1-1.226.223,2.3,2.3,0,0,1-1.638-.538,2.425,2.425,0,0,1-.685-1.569" transform="translate(-488.635 -180.037)" fill="#fff"/>
      <path id="Path_147" data-name="Path 147" d="M654.906,244.837v-5.085h-1.657v-1.041H657.7v1.041h-1.657v5.085Z" transform="translate(-506.375 -180.364)" fill="#fff"/>
      <path id="Path_148" data-name="Path 148" d="M673.217,242.408l.761-2.268.8,2.268Zm1.37-3.7h-1.206l-2.183,6.126H672.4l.465-1.388h2.271l.487,1.388h1.23Z" transform="translate(-520.29 -180.365)" fill="#fff"/>
      <path id="Path_149" data-name="Path 149" d="M699.014,244.837v-6.126h1.107l2.319,4.1v-4.1h1.055v6.126h-1.141l-2.284-4.016v4.016Z" transform="translate(-541.851 -180.364)" fill="#fff"/>
      <path id="Path_150" data-name="Path 150" d="M727.159,242.255l1.1.372a2.755,2.755,0,0,1-.846,1.5,2.28,2.28,0,0,1-1.5.49,2.34,2.34,0,0,1-1.85-.834,3.361,3.361,0,0,1-.725-2.281,3.532,3.532,0,0,1,.729-2.377,2.406,2.406,0,0,1,1.917-.846,2.254,2.254,0,0,1,1.686.662,2.478,2.478,0,0,1,.579,1.125l-1.13.295a1.31,1.31,0,0,0-.42-.751,1.15,1.15,0,0,0-.777-.276,1.25,1.25,0,0,0-1.024.49,2.537,2.537,0,0,0-.394,1.587,2.738,2.738,0,0,0,.388,1.659,1.22,1.22,0,0,0,1.006.494,1.1,1.1,0,0,0,.787-.315,1.891,1.891,0,0,0,.472-.991" transform="translate(-560.708 -180.037)" fill="#fff"/>
      <path id="Path_151" data-name="Path 151" d="M749.525,244.837v-6.126H753.7v1.041h-3.031V241.1h2.823v1.04h-2.823V243.8h3.142v1.041Z" transform="translate(-581.006 -180.364)" fill="#fff"/>
      <path id="Path_152" data-name="Path 152" d="M781.253,242.521l1.1-.121a1.517,1.517,0,0,0,.4.891,1.157,1.157,0,0,0,.823.284,1.191,1.191,0,0,0,.826-.253.779.779,0,0,0,.278-.592.593.593,0,0,0-.117-.37.925.925,0,0,0-.407-.265q-.2-.075-.908-.269a2.925,2.925,0,0,1-1.278-.606,1.654,1.654,0,0,1-.517-1.233,1.679,1.679,0,0,1,.242-.876,1.565,1.565,0,0,1,.7-.62,2.614,2.614,0,0,1,1.107-.213,2.237,2.237,0,0,1,1.595.508,1.874,1.874,0,0,1,.563,1.359l-1.142.039a1.073,1.073,0,0,0-.312-.673,1.061,1.061,0,0,0-.715-.207,1.212,1.212,0,0,0-.771.221.458.458,0,0,0-.18.379.484.484,0,0,0,.168.37,2.823,2.823,0,0,0,1.042.41,5.268,5.268,0,0,1,1.223.441,1.662,1.662,0,0,1,.619.626,1.957,1.957,0,0,1,.224.979,1.933,1.933,0,0,1-.268.99,1.649,1.649,0,0,1-.761.685,2.935,2.935,0,0,1-1.225.223,2.3,2.3,0,0,1-1.639-.538,2.414,2.414,0,0,1-.684-1.569" transform="translate(-605.6 -180.037)" fill="#fff"/>
      <path id="Path_153" data-name="Path 153" d="M805.886,244.837v-6.126h4.173v1.041h-3.032V241.1h2.822v1.04h-2.822V243.8h3.142v1.041Z" transform="translate(-624.695 -180.364)" fill="#fff"/>
      <path id="Path_154" data-name="Path 154" d="M830.347,239.752h.882c.458,0,.734.007.824.021a.68.68,0,0,1,.427.238.785.785,0,0,1,.151.5.85.85,0,0,1-.115.458.619.619,0,0,1-.317.259,3.972,3.972,0,0,1-1.016.075h-.837Zm0,5.085v-2.563h.232a1.785,1.785,0,0,1,.573.069.9.9,0,0,1,.344.255,8.654,8.654,0,0,1,.6.9l.813,1.343h1.341l-.683-1.2a6.937,6.937,0,0,0-.638-1,2.661,2.661,0,0,0-.6-.516,1.7,1.7,0,0,0,1.1-.564,1.734,1.734,0,0,0,.367-1.137,1.883,1.883,0,0,0-.245-.965,1.325,1.325,0,0,0-.653-.585,3.753,3.753,0,0,0-1.306-.165H829.2v6.126Z" transform="translate(-642.771 -180.364)" fill="#fff"/>
      <path id="Path_155" data-name="Path 155" d="M853.23,244.837l-1.968-6.126H852.5l1.4,4.536,1.374-4.536h1.211l-2,6.126Z" transform="translate(-659.869 -180.364)" fill="#fff"/>
      <rect id="Rectangle_87" data-name="Rectangle 87" width="1.143" height="6.126" transform="translate(197.178 58.348)" fill="#fff"/>
      <path id="Path_156" data-name="Path 156" d="M889.754,242.255l1.1.372a2.751,2.751,0,0,1-.846,1.5,2.279,2.279,0,0,1-1.5.49,2.344,2.344,0,0,1-1.851-.834,3.357,3.357,0,0,1-.726-2.281,3.535,3.535,0,0,1,.73-2.377,2.4,2.4,0,0,1,1.917-.846,2.245,2.245,0,0,1,1.684.662,2.46,2.46,0,0,1,.579,1.125l-1.129.295a1.31,1.31,0,0,0-.42-.751,1.148,1.148,0,0,0-.777-.276,1.248,1.248,0,0,0-1.024.49,2.551,2.551,0,0,0-.394,1.587,2.74,2.74,0,0,0,.387,1.659,1.219,1.219,0,0,0,1.006.494,1.1,1.1,0,0,0,.787-.315,1.883,1.883,0,0,0,.472-.991" transform="translate(-686.747 -180.037)" fill="#fff"/>
      <path id="Path_157" data-name="Path 157" d="M912.121,244.837v-6.126h4.174v1.041h-3.033V241.1h2.824v1.04h-2.824V243.8H916.4v1.041Z" transform="translate(-707.044 -180.364)" fill="#fff"/>
      <path id="Path_158" data-name="Path 158" d="M934.134,242.521l1.1-.121a1.533,1.533,0,0,0,.4.891,1.161,1.161,0,0,0,.823.284,1.192,1.192,0,0,0,.828-.253.778.778,0,0,0,.278-.592.592.592,0,0,0-.117-.37.916.916,0,0,0-.408-.265c-.132-.05-.436-.14-.908-.269a2.935,2.935,0,0,1-1.279-.606,1.656,1.656,0,0,1-.517-1.233,1.68,1.68,0,0,1,.244-.876,1.563,1.563,0,0,1,.7-.62,2.625,2.625,0,0,1,1.109-.213,2.238,2.238,0,0,1,1.595.508,1.876,1.876,0,0,1,.562,1.359l-1.141.039a.9.9,0,0,0-1.027-.88,1.211,1.211,0,0,0-.77.221.455.455,0,0,0-.18.379.48.48,0,0,0,.168.37,2.813,2.813,0,0,0,1.042.41,5.191,5.191,0,0,1,1.222.441,1.655,1.655,0,0,1,.621.626,1.97,1.97,0,0,1,.224.979,1.943,1.943,0,0,1-.27.99,1.643,1.643,0,0,1-.761.685,2.931,2.931,0,0,1-1.224.223,2.3,2.3,0,0,1-1.641-.538,2.43,2.43,0,0,1-.684-1.569" transform="translate(-724.109 -180.037)" fill="#fff"/>
      <path id="Path_159" data-name="Path 159" d="M976.938,198.585a1.947,1.947,0,0,1,.747.8,2.348,2.348,0,0,1,.006,2.183,2.01,2.01,0,0,1-.742.807,1.861,1.861,0,0,1-2,0,2,2,0,0,1-.743-.807,2.356,2.356,0,0,1,.007-2.183,1.945,1.945,0,0,1,.745-.8,1.89,1.89,0,0,1,1.977,0m-2.226-.476a2.428,2.428,0,0,0-.932,1.006,2.94,2.94,0,0,0-.006,2.73,2.474,2.474,0,0,0,.927,1.009,2.343,2.343,0,0,0,2.5,0,2.482,2.482,0,0,0,.927-1.009,2.94,2.94,0,0,0-.006-2.73,2.428,2.428,0,0,0-.932-1.006,2.366,2.366,0,0,0-2.478,0m.656,3.825V200.76h.137a.544.544,0,0,1,.366.122,1.924,1.924,0,0,1,.368.588l.22.464h.663l-.3-.578c-.111-.205-.178-.321-.2-.349a1.3,1.3,0,0,0-.181-.221.664.664,0,0,0-.186-.108.823.823,0,0,0,.522-.273.8.8,0,0,0,.186-.531.862.862,0,0,0-.1-.412.714.714,0,0,0-.246-.274.962.962,0,0,0-.413-.114c-.061,0-.342-.007-.844-.007h-.534v2.868Zm0-2.415h.214a2.227,2.227,0,0,1,.565.042.339.339,0,0,1,.176.134.378.378,0,0,1,.063.215.391.391,0,0,1-.065.221.339.339,0,0,1-.175.137,2.372,2.372,0,0,1-.565.038h-.214Z" transform="translate(-754.577 -149.421)" fill="#005daa"/>
      <path id="Path_160" data-name="Path 160" d="M976.938,198.585a1.947,1.947,0,0,1,.747.8,2.348,2.348,0,0,1,.006,2.183,2.01,2.01,0,0,1-.742.807,1.861,1.861,0,0,1-2,0,2,2,0,0,1-.743-.807,2.356,2.356,0,0,1,.007-2.183,1.945,1.945,0,0,1,.745-.8,1.89,1.89,0,0,1,1.977,0m-2.226-.476a2.428,2.428,0,0,0-.932,1.006,2.94,2.94,0,0,0-.006,2.73,2.474,2.474,0,0,0,.927,1.009,2.343,2.343,0,0,0,2.5,0,2.482,2.482,0,0,0,.927-1.009,2.94,2.94,0,0,0-.006-2.73,2.428,2.428,0,0,0-.932-1.006,2.366,2.366,0,0,0-2.478,0m.656,3.825V200.76h.137a.544.544,0,0,1,.366.122,1.924,1.924,0,0,1,.368.588l.22.464h.663l-.3-.578c-.111-.205-.178-.321-.2-.349a1.3,1.3,0,0,0-.181-.221.664.664,0,0,0-.186-.108.823.823,0,0,0,.522-.273.8.8,0,0,0,.186-.531.862.862,0,0,0-.1-.412.714.714,0,0,0-.246-.274.962.962,0,0,0-.413-.114c-.061,0-.342-.007-.844-.007h-.534v2.868Zm0-2.415h.214a2.227,2.227,0,0,1,.565.042.339.339,0,0,1,.176.134.378.378,0,0,1,.063.215.391.391,0,0,1-.065.221.339.339,0,0,1-.175.137,2.372,2.372,0,0,1-.565.038h-.214Z" transform="translate(-754.577 -149.421)" fill="#fff"/>
      <rect id="Rectangle_88" data-name="Rectangle 88" width="44.713" height="1.889" transform="translate(170.042 52.615)" fill="#64c1be"/>
      <rect id="Rectangle_89" data-name="Rectangle 89" width="53.086" height="1.832" transform="translate(96.047 52.557)" fill="#64c1be"/>
      <rect id="Rectangle_90" data-name="Rectangle 90" width="80.315" height="1.833" transform="translate(2.038 52.843)" fill="#64c1be"/>
      <path id="Path_161" data-name="Path 161" d="M.495,81.189c-.912,11.537-.42,21.2.315,24.22s2.044,4.33,3.039.684a27.234,27.234,0,0,1,6.344-10.885c2.149-2.336,9.015-11.226,9.907-13.677,1.677-2.336-.42-7.293-1.993-5.014-1,1.539-.261,4.274-1.467,6.44-1.053,2.055-2.5,3.95-7.583,9.82-1.62,1.6-5.549,6.592-5.868,7.739-1.448-1.735-1.1-4.27-1.055-5.871s.406-11.057.909-13.13c.49-2.029.932-4.057.147-4.857-.852-.868-1.349-.161-1.719.827a9.872,9.872,0,0,0-.975,3.7" transform="translate(0 -57.373)" fill="#fff"/>
      <path id="Path_162" data-name="Path 162" d="M78.992,125.951c.643-1.653-.379-2.773-1.008-1.917a20.4,20.4,0,0,0-1.858,2.6,8.134,8.134,0,0,0-1.26,3.765,7.992,7.992,0,0,1-.6,3.594c-.346,1.2-1.794,7.357-.5,9.07s1.92,1.335,3.211.342,5.005-4.415,6.328-7.119c.944-1.711,1.479-2.944,1.795-3.046s.629.958,1.164,2.224,1.921,4.586.819,5.373c-.755.685-1.133.788-1.48.617s-.315-.788-1.1-.308-2.236,2.705-.945,3.218,2.393.445,3.841-.992c1.795-1.507,2.959-3.7,1.448-7.154-1.07-2.464-2.928-5.476-.409-8.078a5.5,5.5,0,0,1,4.628-1.95c.125-1.917-.378-2.328-1.354-2.226s-3.4.069-5.794,4.244c-1.133,2.807-4.155,9.206-7.145,11.33-2.236,1.505-3.936,2.464-3.527-.171s.829-4.816,3.748-13.416" transform="translate(-56.773 -93.494)" fill="#fff"/>
      <path id="Path_163" data-name="Path 163" d="M100.251,85.4c.193.134.455.058.714.044.276-.379.341-4.073.144-5.871-.693-1.04-2-.131-2.08.575-.047.429-.132,3.637,1.222,5.252" transform="translate(-76.747 -59.769)" fill="#fff"/>
      <path id="Path_164" data-name="Path 164" d="M190.31,85.731c.194.134.456.058.714.044.277-.379.341-4.073.145-5.869-.694-1.041-2-.132-2.081.574-.047.429-.132,3.637,1.221,5.252" transform="translate(-146.558 -60.018)" fill="#fff"/>
      <path id="Path_165" data-name="Path 165" d="M281.018,85.191c.194.134.456.058.714.044.277-.379.342-4.073.144-5.871-.693-1.04-2-.132-2.079.575-.047.429-.133,3.637,1.221,5.251" transform="translate(-216.872 -59.61)" fill="#fff"/>
      <path id="Path_166" data-name="Path 166" d="M174.34,115.412c-.369-.241-3.238,4.943-6.011,6.4-1.585.8-2.415.8-3.223-.446-1.175-1.808.157-7.872.5-9.07a8.007,8.007,0,0,0,.6-3.594,8.142,8.142,0,0,1,1.259-3.765,20.357,20.357,0,0,1,1.858-2.6c.63-.855,1.651.264,1.008,1.917-2.918,8.6-3.338,10.78-3.747,13.417s.989,2.664,3.526.171a64.567,64.567,0,0,0,5.722-7.655c.853-1.657.8-2.8.429-2.822-3.9,1.167-4.391-2.566.469-2.461a33.675,33.675,0,0,0,2.362-7.872c.538-2.324,2.566-2.557,2.364-.742-.38,2.561-2.285,7.661-2.179,7.929s6.773-.229,7.62-.268c.423.306.211,1.034-.883,1.3s-6.913,1.3-7.371,1.879-1.94,6.174-2.152,8.36-.741,6.327,3.527,3.067c3.246-2.492,4.136-3.554,2.832-.947-1.534,3.195-7.734,7.774-8.37,1.677a34.889,34.889,0,0,0-.141-3.873" transform="translate(-127.616 -71.842)" fill="#fff"/>
      <path id="Path_167" data-name="Path 167" d="M297.621,134.478c-.812.5-3.063,2.03-4.427,2.967s-1.843,1.2-1.938.286,1.363-8.715,1.46-9.731a3.367,3.367,0,0,1,.743-2.159c.742-1.3.5-3.643-.025-4.111-2.011-1.873-5.146.547-7.2,2.992s-3.374,5.751-5.7,10.2c-4.333,6.972-8.082,5.989-5.648-3.46A51.806,51.806,0,0,1,277.637,123c.6-4.5-3.493-.781-4.81.963s-3.733,5.907-4.906,7.857-.12-2.445.382-4.786a8.872,8.872,0,0,1,1.891-4.164,1.747,1.747,0,0,0-.358-2.237c-.478-.261-.966-1.36-2.047.989s-1.328,5.907-1.878,7.675c-1.076,1.326-3.032,4.423-5.592,7.576-2.186,2.259-3.935,2.464-3.526-.172s.829-4.815,3.746-13.416c.645-1.653-.377-2.772-1.006-1.916a20.3,20.3,0,0,0-1.858,2.6,8.131,8.131,0,0,0-1.26,3.765,7.994,7.994,0,0,1-.6,3.594c-.346,1.2-1.821,7.479-.548,9.206,1.116,1.513,1.965,1.2,3.255.206s5.65-6.926,5.975-6.864c.55.1.527,3.018.527,4.787.167,1.509.693,2.523,1.723.155,2.944-7.077,4.549-9.26,5.935-11.187,1.2-1.665,1.388-1.041,1.293-.131-.129,1.216-.383,1.614-.862,3.877-.455,2.446-.91,6.218-.12,8.613,2.011,4.683,6.7-1.848,7.4-2.731s.527-.313.98,2.341,2.011,1.587,2.8.911,4.547-6.192,4.978-6.843.5-.7.55-.078-.67,5.36-.933,7.26c-.766.728-4.835,4.241-7.707,6.816-3.327,3.1-4.14,4.163-5.648,7.624s1.986,4.84,3.638,4.891c5.1-.442,6.749-3.9,8.09-6.427s3.04-9.626,3.638-11.812c.861-.65,6.534-5.074,7.682-6.218s-.024-1.743-.838-1.249m-15.016,22.279c-3.33,2.909-5.323.03-4.27-2.476,1.281-2.538,7.345-9.811,9.793-10.306.6-.122-1.737,9.873-5.523,12.782m8.1-29.31c-.483.757-.67,1.369-1.689,3.291a35.5,35.5,0,0,1-4.4,6.293c-1.635,1.835-1.366-1.778-.8-3.992s3.475-5.889,4.93-7.9c.4-.554,1.8-1.689,3.029-.99s.3,2.156-.054,2.417-.536.116-1.018.875" transform="translate(-197.481 -90.784)" fill="#fff"/>
      <path id="Path_168" data-name="Path 168" d="M1060.4,0c-14.3,0-26.2,11.045-28.769,25.653l1.468,3.2a31.3,31.3,0,0,1,.437-3.166c2.557-13.321,13.612-23.342,26.864-23.342,15.144,0,27.42,13.088,27.42,29.234s-12.276,29.234-27.42,29.234a25.969,25.969,0,0,1-12.935-3.45c-.6-.345-1.2-.716-1.772-1.109l1.651,3.6a27.442,27.442,0,0,0,13.056,3.3c16.173,0,29.283-14.137,29.283-31.575S1076.578,0,1060.4,0" transform="translate(-799.687)" fill="#fff"/>
    </g>
  </g>
</svg>
