<svg id="Group_25" data-name="Group 25" xmlns="http://www.w3.org/2000/svg" xmlns:xlink="http://www.w3.org/1999/xlink" width="290" height="72.285" viewBox="0 0 290 72.285">
  <defs>
    <clipPath id="clip-path">
      <rect id="Rectangle_27" data-name="Rectangle 27" width="290" height="72.285" fill="none"/>
    </clipPath>
  </defs>
  <g id="Group_24" data-name="Group 24" clip-path="url(#clip-path)">
    <path id="Path_50" data-name="Path 50" d="M448.8,65.3c18.891.292,27.559-5.161,33.985-8.278a25.8,25.8,0,0,1-3.8-.39l3.117-2.142-3.7-.1,2.63-2.532-2.923.1L480.25,50.4l-3.115.1a9.95,9.95,0,0,0,2.531-2.239c-18.231,5.952-24.734,2.239-29.019.974,1.072-4.967,9.155-14.121,17.821-16.068C454.64,29.656,440.715,39.394,435.846,43c-2.726-1.948-5.16-5.94-5.356-7.985s-3.506-5.453-7.109-4.187c-2.824,1.363-6.525.1-6.525.1s2.046,1.558,4.771,6.134a28.751,28.751,0,0,0,9.642,19.379c3.115,21.423,23.274,27.947,35.933,30.772A39.167,39.167,0,0,1,448.8,65.3M426.011,34.33a.829.829,0,1,1,.876-.828.854.854,0,0,1-.876.828" transform="translate(-203.626 -14.923)" fill="#64c1be"/>
    <path id="Path_51" data-name="Path 51" d="M205.971,58.506l3.944-8.838,3.774,9.056Zm-7.635,9.13h9.112V66.417a10.172,10.172,0,0,1-2.367-.3A1.83,1.83,0,0,1,203.89,65a1.908,1.908,0,0,1-.028-1.672q.262-.634,1.166-2.8h9.245l1.009,2.182q.329.734.524,1.249a4.213,4.213,0,0,1,.314,1.277c0,.638-.7.838-1.113.99a4.521,4.521,0,0,1-1.916.29v1.121h11.479V66.515a2.476,2.476,0,0,1-2.126-.885,30.694,30.694,0,0,1-1.871-3.928l-8.306-18.014H210.83L202.313,62.5a14.487,14.487,0,0,1-1.732,3.042,2.733,2.733,0,0,1-2.245.978Z" transform="translate(-96.883 -21.34)" fill="#005daa"/>
    <path id="Path_52" data-name="Path 52" d="M252.906,74.8a4.913,4.913,0,0,0,1.858-.468,1.823,1.823,0,0,0,.439-1.437V64.127a1.989,1.989,0,0,0-.357-1.365,5.811,5.811,0,0,0-2.137-.5V60.9l6.764-.019.016,2.929a10.734,10.734,0,0,1,2.548-2.467,7.083,7.083,0,0,1,3.632-.834,4.964,4.964,0,0,1,3.393,1.062q1.2,1.062,1.2,3.729V73.02a1.737,1.737,0,0,0,.387,1.361,5.2,5.2,0,0,0,1.786.414v.779h-8.469V74.8a2.708,2.708,0,0,0,1.243-.466c.22-.2.823-.634.919-1.087v-7.73a3.752,3.752,0,0,0-.263-1.4A2.587,2.587,0,0,0,263.689,63a4.759,4.759,0,0,0-2.329.555,5.659,5.659,0,0,0-1.74,2.508l.081,7.246c0,.679.417.822.638,1.018a3.8,3.8,0,0,0,1.439.466v.779h-8.871Z" transform="translate(-123.444 -29.556)" fill="#005daa"/>
    <path id="Path_53" data-name="Path 53" d="M303.315,63.626a7.663,7.663,0,0,1,.48-3.063,1.907,1.907,0,0,1,1.928-1.057,1.952,1.952,0,0,1,1.865.986,6.784,6.784,0,0,1,.546,3.134,7.291,7.291,0,0,1-.518,3.1,1.915,1.915,0,0,1-1.892,1.056,2.017,2.017,0,0,1-2.051-1.408,7.849,7.849,0,0,1-.358-2.746m-2.142,13.446a1.635,1.635,0,0,1,.449-1.1,5.635,5.635,0,0,1,.828-.705H308.5a5.489,5.489,0,0,1,2.583.423,1.369,1.369,0,0,1,.711,1.254q0,1.429-2.5,1.96a16.805,16.805,0,0,1-3.384.282,8.62,8.62,0,0,1-3.52-.566,1.733,1.733,0,0,1-1.214-1.553m-3.257.216q0,1.783,3.1,2.506a19.694,19.694,0,0,0,4.465.442,19.485,19.485,0,0,0,5.256-.6q3.959-1.176,3.961-4.3a3.405,3.405,0,0,0-2.638-3.352,10.509,10.509,0,0,0-3.409-.509l-2.386-.035q-.486,0-1.364-.043c-.586-.029-.97-.055-1.148-.079a1.476,1.476,0,0,1-.842-.315.938.938,0,0,1-.306-.754,1.23,1.23,0,0,1,.609-1.035,2.745,2.745,0,0,1,1.128-.509c.228,0,.4.006.512.018s.353.018.724.018a13.122,13.122,0,0,0,4.279-.6q3.279-1.112,3.278-4.131a4.054,4.054,0,0,0-.386-1.765c-.259-.541-1.137-1.6-1.243-2.016,0,0,.979-.818,1.233-1.082,1.121,1.65,1.326,1.749,2.263,1.669,2.69-.629.928-3.477.19-3.611-2.817-.515-4.931,2.236-4.931,2.236a15.472,15.472,0,0,0-2.159-.762,12.149,12.149,0,0,0-2.37-.214,9.256,9.256,0,0,0-5.446,1.426,4.276,4.276,0,0,0-2.012,3.609,4.149,4.149,0,0,0,1.147,2.957,7.572,7.572,0,0,0,3.013,1.884v.209a9.238,9.238,0,0,0-2.633,1.336,2.754,2.754,0,0,0-1.349,2.284,2.207,2.207,0,0,0,.855,1.81,5.762,5.762,0,0,0,1.549.737v.208a3.621,3.621,0,0,0-2.282.946,2.167,2.167,0,0,0-.657,1.42" transform="translate(-145.526 -27.911)" fill="#005daa"/>
    <path id="Path_54" data-name="Path 54" d="M342.885,66.76a12.266,12.266,0,0,1,.617-4.011,2,2,0,0,1,2.013-1.367,1.863,1.863,0,0,1,1.914,1.191,13.015,13.015,0,0,1,.515,4.187Zm-5.242,1.678q0,4.278,2.432,6.223a8.2,8.2,0,0,0,5.216,1.945,8.845,8.845,0,0,0,3.428-.623,9.755,9.755,0,0,0,4.055-3.537l-.865-.478a10.94,10.94,0,0,1-1.79,1.489,4.686,4.686,0,0,1-2.511.734,3.934,3.934,0,0,1-3.895-2.755,10.906,10.906,0,0,1-.739-3.489h9.618a10.156,10.156,0,0,0-.127-1.336,8.542,8.542,0,0,0-.922-3.022,6.138,6.138,0,0,0-2.522-2.428,7.334,7.334,0,0,0-3.5-.872,7.91,7.91,0,0,0-5.57,2.139,7.782,7.782,0,0,0-2.31,6.011" transform="translate(-164.932 -29.449)" fill="#005daa"/>
    <path id="Path_55" data-name="Path 55" d="M375.319,67.576a3.945,3.945,0,0,0,1.543-.593,1.85,1.85,0,0,0,.454-1.484V47.838a1.89,1.89,0,0,0-.424-1.47,3.67,3.67,0,0,0-1.573-.561v-.85h6.712V65.5c0,.749,1.127,1.24,1.421,1.472a1.786,1.786,0,0,0,1.066.606v.85h-9.2Z" transform="translate(-183.336 -21.961)" fill="#005daa"/>
    <path id="Path_56" data-name="Path 56" d="M399.46,70.876h1.03a5.114,5.114,0,0,0,2.039,3.334,8.734,8.734,0,0,0,3.943.967,3.215,3.215,0,0,0,2.112-.573c.45-.382,1.263-.888,1.263-1.519,0-.582.051-1.086-.437-1.51a8.821,8.821,0,0,0-1.581-.727l-4.217-1.2a8.352,8.352,0,0,1-3.106-2.068,3.884,3.884,0,0,1-.957-2.63,4.347,4.347,0,0,1,1.514-3.3,6,6,0,0,1,4.231-1.4,10.337,10.337,0,0,1,2.515.335c1.036.262.96.747,1.588.747.3,0,.592-.47.721-.592a1.424,1.424,0,0,0,.318-.49h.807v4.749h-.9a5.573,5.573,0,0,0-1.762-2.67,4.379,4.379,0,0,0-2.857-1,5.763,5.763,0,0,0-2.846.671c-.415.413-.837.8-.837,1.276,0,.39-.1,1.051.264,1.438a7.427,7.427,0,0,0,3.173,1.043l3.121.773a10.871,10.871,0,0,1,2.771,1.579,3.826,3.826,0,0,1,1.166,3.176,4.794,4.794,0,0,1-1.4,3.422c-1,1.058-3.088,1.589-5.09,1.589a8.409,8.409,0,0,1-1.5-.137,16.22,16.22,0,0,1-1.863-.479l-.637-.181c-.232-.072-.373-.114-.428-.127a1.063,1.063,0,0,0-.21-.018.75.75,0,0,0-.537.218,3.3,3.3,0,0,0-.518.724h-.9Z" transform="translate(-195.128 -29.434)" fill="#005daa"/>
    <path id="Path_57" data-name="Path 57" d="M190.041,109.687v-5.539h1.133v4.589h2.812v.95Z" transform="translate(-92.831 -50.874)" fill="#005daa"/>
    <rect id="Rectangle_20" data-name="Rectangle 20" width="1.131" height="5.588" transform="translate(101.912 53.225)" fill="#005daa"/>
    <path id="Path_58" data-name="Path 58" d="M204.373,109.64l-1.951-5.588h1.223l1.388,4.138,1.363-4.138h1.2l-1.98,5.588Z" transform="translate(-98.879 -50.827)" fill="#005daa"/>
    <rect id="Rectangle_21" data-name="Rectangle 21" width="1.131" height="5.588" transform="translate(109.279 53.225)" fill="#005daa"/>
    <path id="Path_59" data-name="Path 59" d="M217.943,109.64v-5.588h1.1l2.3,3.743v-3.743h1.048v5.588h-1.133l-2.263-3.663v3.663Z" transform="translate(-106.46 -50.827)" fill="#005daa"/>
    <path id="Path_60" data-name="Path 60" d="M231.356,107.5v-.95h2.434V108.8a3.064,3.064,0,0,1-1.026.6,3.746,3.746,0,0,1-1.362.259,3.058,3.058,0,0,1-1.528-.367,2.349,2.349,0,0,1-.98-1.055,3.427,3.427,0,0,1-.327-1.493,3.228,3.228,0,0,1,.366-1.555A2.477,2.477,0,0,1,230,104.142a2.874,2.874,0,0,1,1.336-.278,2.669,2.669,0,0,1,1.625.436,1.972,1.972,0,0,1,.751,1.206l-1.12.208a1.19,1.19,0,0,0-.443-.651,1.351,1.351,0,0,0-.816-.237,1.529,1.529,0,0,0-1.177.471,1.991,1.991,0,0,0-.436,1.4,2.2,2.2,0,0,0,.444,1.5,1.482,1.482,0,0,0,1.163.5,1.953,1.953,0,0,0,.714-.14,2.447,2.447,0,0,0,.613-.34V107.5Z" transform="translate(-111.651 -50.735)" fill="#005daa"/>
    <path id="Path_61" data-name="Path 61" d="M245.359,107.423l.755-2.069.79,2.069Zm1.359-3.371h-1.2l-2.165,5.588h1.2l.461-1.267h2.252l.484,1.267h1.218Z" transform="translate(-118.874 -50.827)" fill="#005daa"/>
    <path id="Path_62" data-name="Path 62" d="M254.911,107.734l1.1-.11a1.352,1.352,0,0,0,.4.813,1.21,1.21,0,0,0,.815.259,1.25,1.25,0,0,0,.82-.231.688.688,0,0,0,.276-.54.508.508,0,0,0-.117-.337.906.906,0,0,0-.4-.242q-.2-.068-.9-.246a3.02,3.02,0,0,1-1.268-.553,1.457,1.457,0,0,1-.513-1.125,1.429,1.429,0,0,1,.242-.8,1.5,1.5,0,0,1,.7-.565,2.784,2.784,0,0,1,1.1-.195,2.344,2.344,0,0,1,1.581.464,1.65,1.65,0,0,1,.558,1.239l-1.132.036a.956.956,0,0,0-.309-.614,1.121,1.121,0,0,0-.709-.189,1.282,1.282,0,0,0-.765.2.405.405,0,0,0-.177.346.424.424,0,0,0,.167.337,2.918,2.918,0,0,0,1.032.374,5.465,5.465,0,0,1,1.213.4,1.586,1.586,0,0,1,.615.571,1.682,1.682,0,0,1,.222.893,1.664,1.664,0,0,1-.267.9,1.6,1.6,0,0,1-.754.625,3.133,3.133,0,0,1-1.214.2,2.409,2.409,0,0,1-1.627-.491,2.135,2.135,0,0,1-.678-1.432" transform="translate(-124.519 -50.735)" fill="#005daa"/>
    <path id="Path_63" data-name="Path 63" d="M265.079,107.734l1.094-.11a1.346,1.346,0,0,0,.4.813,1.209,1.209,0,0,0,.815.259,1.25,1.25,0,0,0,.82-.231.687.687,0,0,0,.276-.54.508.508,0,0,0-.117-.337.915.915,0,0,0-.4-.242c-.131-.046-.431-.127-.9-.246a3.008,3.008,0,0,1-1.267-.553,1.469,1.469,0,0,1-.272-1.924,1.507,1.507,0,0,1,.7-.565,2.783,2.783,0,0,1,1.1-.195,2.347,2.347,0,0,1,1.581.464,1.646,1.646,0,0,1,.558,1.239l-1.132.036a.949.949,0,0,0-.309-.614,1.117,1.117,0,0,0-.709-.189,1.281,1.281,0,0,0-.764.2.406.406,0,0,0-.178.346.425.425,0,0,0,.168.337,2.889,2.889,0,0,0,1.032.374,5.5,5.5,0,0,1,1.213.4,1.583,1.583,0,0,1,.614.571,1.776,1.776,0,0,1-.045,1.8,1.6,1.6,0,0,1-.754.625,3.137,3.137,0,0,1-1.215.2,2.4,2.4,0,0,1-1.625-.491,2.13,2.13,0,0,1-.678-1.432" transform="translate(-129.486 -50.735)" fill="#005daa"/>
    <rect id="Rectangle_22" data-name="Rectangle 22" width="1.133" height="5.588" transform="translate(141.049 53.225)" fill="#005daa"/>
    <path id="Path_64" data-name="Path 64" d="M279.478,107.734l1.1-.11a1.344,1.344,0,0,0,.4.813,1.208,1.208,0,0,0,.816.259,1.25,1.25,0,0,0,.819-.231.687.687,0,0,0,.275-.54.5.5,0,0,0-.116-.337.913.913,0,0,0-.4-.242q-.2-.068-.9-.246a3.032,3.032,0,0,1-1.268-.553,1.457,1.457,0,0,1-.513-1.125,1.437,1.437,0,0,1,.242-.8,1.508,1.508,0,0,1,.7-.565,2.78,2.78,0,0,1,1.1-.195,2.346,2.346,0,0,1,1.582.464,1.649,1.649,0,0,1,.557,1.239l-1.132.036a.962.962,0,0,0-.307-.614,1.127,1.127,0,0,0-.712-.189,1.273,1.273,0,0,0-.763.2.405.405,0,0,0-.178.346.422.422,0,0,0,.168.337,2.91,2.91,0,0,0,1.033.374,5.5,5.5,0,0,1,1.213.4,1.58,1.58,0,0,1,.614.571,1.769,1.769,0,0,1-.044,1.8,1.6,1.6,0,0,1-.753.625,3.151,3.151,0,0,1-1.216.2,2.408,2.408,0,0,1-1.625-.491,2.135,2.135,0,0,1-.679-1.432" transform="translate(-136.519 -50.735)" fill="#005daa"/>
    <path id="Path_65" data-name="Path 65" d="M291.1,109.64V105h-1.644v-.95h4.42V105h-1.644v4.638Z" transform="translate(-141.392 -50.827)" fill="#005daa"/>
    <path id="Path_66" data-name="Path 66" d="M299.281,107.423l.755-2.069.789,2.069Zm1.358-3.371h-1.2l-2.165,5.588h1.2l.46-1.267h2.252l.483,1.267h1.219Z" transform="translate(-145.214 -50.827)" fill="#005daa"/>
    <path id="Path_67" data-name="Path 67" d="M309.4,109.64v-5.588h1.1l2.3,3.743v-3.743h1.047v5.588h-1.131l-2.265-3.663v3.663Z" transform="translate(-151.137 -50.827)" fill="#005daa"/>
    <path id="Path_68" data-name="Path 68" d="M323.792,107.491l1.1.34a2.478,2.478,0,0,1-.838,1.368,2.639,2.639,0,0,1-3.324-.314,2.908,2.908,0,0,1-.719-2.081,3.053,3.053,0,0,1,.723-2.169,2.482,2.482,0,0,1,1.9-.771,2.339,2.339,0,0,1,1.672.6,2.2,2.2,0,0,1,.574,1.026l-1.121.269a1.174,1.174,0,0,0-.416-.685,1.2,1.2,0,0,0-.77-.252,1.283,1.283,0,0,0-1.016.447,2.177,2.177,0,0,0-.39,1.448,2.344,2.344,0,0,0,.384,1.513,1.25,1.25,0,0,0,1,.45,1.144,1.144,0,0,0,.78-.287,1.677,1.677,0,0,0,.468-.9" transform="translate(-156.316 -50.735)" fill="#005daa"/>
    <path id="Path_69" data-name="Path 69" d="M331.42,109.64v-5.588h4.138V105h-3.007v1.23h2.8v.949h-2.8v1.509h3.116v.95Z" transform="translate(-161.892 -50.827)" fill="#005daa"/>
    <path id="Path_70" data-name="Path 70" d="M345.25,107.734l1.1-.11a1.34,1.34,0,0,0,.4.813,1.21,1.21,0,0,0,.816.259,1.25,1.25,0,0,0,.819-.231.688.688,0,0,0,.276-.54.512.512,0,0,0-.116-.337.928.928,0,0,0-.4-.242q-.2-.068-.9-.246a3.015,3.015,0,0,1-1.267-.553,1.453,1.453,0,0,1-.513-1.125,1.436,1.436,0,0,1,.241-.8,1.513,1.513,0,0,1,.7-.565,2.783,2.783,0,0,1,1.1-.195,2.344,2.344,0,0,1,1.582.464,1.646,1.646,0,0,1,.558,1.239l-1.133.036a.946.946,0,0,0-.309-.614,1.116,1.116,0,0,0-.709-.189,1.28,1.28,0,0,0-.764.2.406.406,0,0,0-.178.346.427.427,0,0,0,.167.337,2.927,2.927,0,0,0,1.034.374,5.525,5.525,0,0,1,1.213.4,1.59,1.59,0,0,1,.614.571,1.673,1.673,0,0,1,.222.893,1.656,1.656,0,0,1-.266.9,1.6,1.6,0,0,1-.755.625,3.135,3.135,0,0,1-1.215.2,2.408,2.408,0,0,1-1.625-.491,2.126,2.126,0,0,1-.678-1.432" transform="translate(-168.647 -50.735)" fill="#005daa"/>
    <path id="Path_71" data-name="Path 71" d="M355.987,109.64v-5.588h4.139V105h-3.007v1.23h2.8v.949h-2.8v1.509h3.116v.95Z" transform="translate(-173.892 -50.827)" fill="#005daa"/>
    <path id="Path_72" data-name="Path 72" d="M367.284,105h.875c.454,0,.728.007.817.019a.693.693,0,0,1,.424.217.677.677,0,0,1,.15.453.732.732,0,0,1-.114.418.61.61,0,0,1-.315.236,4.278,4.278,0,0,1-1.007.068h-.83Zm0,4.638V107.3h.23a1.919,1.919,0,0,1,.569.062.9.9,0,0,1,.341.232,7.819,7.819,0,0,1,.6.819l.806,1.225h1.33l-.677-1.092a6.3,6.3,0,0,0-.632-.908,2.6,2.6,0,0,0-.593-.471,1.732,1.732,0,0,0,1.089-.515,1.5,1.5,0,0,0,.364-1.037,1.613,1.613,0,0,0-.243-.88,1.286,1.286,0,0,0-.648-.534,4.038,4.038,0,0,0-1.3-.15h-2.367v5.588Z" transform="translate(-178.857 -50.828)" fill="#005daa"/>
    <path id="Path_73" data-name="Path 73" d="M377.717,109.64l-1.952-5.588h1.223l1.388,4.138,1.363-4.138h1.2l-1.979,5.588Z" transform="translate(-183.554 -50.827)" fill="#005daa"/>
    <rect id="Rectangle_23" data-name="Rectangle 23" width="1.134" height="5.588" transform="translate(197.948 53.225)" fill="#005daa"/>
    <path id="Path_74" data-name="Path 74" d="M394.667,107.491l1.1.34a2.467,2.467,0,0,1-.838,1.368,2.392,2.392,0,0,1-1.489.447,2.416,2.416,0,0,1-1.835-.761,2.9,2.9,0,0,1-.72-2.081,3.056,3.056,0,0,1,.724-2.169,2.481,2.481,0,0,1,1.9-.771,2.331,2.331,0,0,1,1.671.6,2.19,2.19,0,0,1,.574,1.026l-1.12.269a1.174,1.174,0,0,0-.416-.685,1.2,1.2,0,0,0-.77-.252,1.281,1.281,0,0,0-1.016.447,2.189,2.189,0,0,0-.39,1.448,2.344,2.344,0,0,0,.384,1.513,1.249,1.249,0,0,0,1,.45,1.139,1.139,0,0,0,.78-.287,1.667,1.667,0,0,0,.468-.9" transform="translate(-190.937 -50.735)" fill="#005daa"/>
    <path id="Path_75" data-name="Path 75" d="M402.294,109.64v-5.588h4.139V105h-3.008v1.23h2.8v.949h-2.8v1.509h3.117v.95Z" transform="translate(-196.512 -50.827)" fill="#005daa"/>
    <path id="Path_76" data-name="Path 76" d="M411.889,107.734l1.1-.11a1.356,1.356,0,0,0,.4.813,1.216,1.216,0,0,0,.816.259,1.25,1.25,0,0,0,.82-.231.688.688,0,0,0,.276-.54.513.513,0,0,0-.116-.337.919.919,0,0,0-.4-.242c-.132-.046-.433-.127-.9-.246a3.02,3.02,0,0,1-1.268-.553,1.47,1.47,0,0,1-.271-1.924,1.516,1.516,0,0,1,.7-.565,2.8,2.8,0,0,1,1.1-.195,2.344,2.344,0,0,1,1.581.464,1.647,1.647,0,0,1,.558,1.239l-1.132.036a.942.942,0,0,0-.31-.614,1.113,1.113,0,0,0-.709-.189,1.275,1.275,0,0,0-.763.2.4.4,0,0,0-.179.346.425.425,0,0,0,.166.337,2.927,2.927,0,0,0,1.034.374,5.451,5.451,0,0,1,1.212.4,1.579,1.579,0,0,1,.615.571,1.682,1.682,0,0,1,.223.893,1.665,1.665,0,0,1-.268.9,1.59,1.59,0,0,1-.755.625,3.131,3.131,0,0,1-1.214.2,2.408,2.408,0,0,1-1.627-.491,2.139,2.139,0,0,1-.678-1.432" transform="translate(-201.199 -50.735)" fill="#005daa"/>
    <path id="Path_77" data-name="Path 77" d="M432.492,86.955a1.847,1.847,0,0,1,.741.733,1.99,1.99,0,0,1,.005,1.991,1.9,1.9,0,0,1-.735.736,1.979,1.979,0,0,1-1.98,0,1.888,1.888,0,0,1-.737-.736,2,2,0,0,1,.008-1.991,1.837,1.837,0,0,1,.738-.733,2.014,2.014,0,0,1,1.961,0m-2.208-.434a2.3,2.3,0,0,0-.924.918,2.492,2.492,0,0,0-.006,2.491,2.34,2.34,0,0,0,.919.92,2.5,2.5,0,0,0,2.48,0,2.345,2.345,0,0,0,.919-.92,2.493,2.493,0,0,0-.007-2.491,2.293,2.293,0,0,0-.924-.918,2.52,2.52,0,0,0-2.457,0m.651,3.489V88.94h.136a.57.57,0,0,1,.363.112,1.747,1.747,0,0,1,.365.536l.218.424h.657l-.3-.527c-.11-.187-.176-.293-.195-.318a1.224,1.224,0,0,0-.18-.2.677.677,0,0,0-.185-.1.839.839,0,0,0,.518-.249.691.691,0,0,0,.185-.484.735.735,0,0,0-.1-.376.667.667,0,0,0-.244-.25,1,1,0,0,0-.409-.1c-.061,0-.339-.006-.836-.006h-.53v2.616Zm0-2.2h.212a2.374,2.374,0,0,1,.56.038.334.334,0,0,1,.175.122.328.328,0,0,1,.062.2.334.334,0,0,1-.064.2.329.329,0,0,1-.174.125,2.565,2.565,0,0,1-.56.035h-.212Z" transform="translate(-209.569 -42.108)" fill="#005daa"/>
    <path id="Path_78" data-name="Path 78" d="M432.492,86.955a1.847,1.847,0,0,1,.741.733,1.99,1.99,0,0,1,.005,1.991,1.9,1.9,0,0,1-.735.736,1.979,1.979,0,0,1-1.98,0,1.888,1.888,0,0,1-.737-.736,2,2,0,0,1,.008-1.991,1.837,1.837,0,0,1,.738-.733,2.014,2.014,0,0,1,1.961,0m-2.208-.434a2.3,2.3,0,0,0-.924.918,2.492,2.492,0,0,0-.006,2.491,2.34,2.34,0,0,0,.919.92,2.5,2.5,0,0,0,2.48,0,2.345,2.345,0,0,0,.919-.92,2.493,2.493,0,0,0-.007-2.491,2.293,2.293,0,0,0-.924-.918,2.52,2.52,0,0,0-2.457,0m.651,3.489V88.94h.136a.57.57,0,0,1,.363.112,1.747,1.747,0,0,1,.365.536l.218.424h.657l-.3-.527c-.11-.187-.176-.293-.195-.318a1.224,1.224,0,0,0-.18-.2.677.677,0,0,0-.185-.1.839.839,0,0,0,.518-.249.691.691,0,0,0,.185-.484.735.735,0,0,0-.1-.376.667.667,0,0,0-.244-.25,1,1,0,0,0-.409-.1c-.061,0-.339-.006-.836-.006h-.53v2.616Zm0-2.2h.212a2.374,2.374,0,0,1,.56.038.334.334,0,0,1,.175.122.328.328,0,0,1,.062.2.334.334,0,0,1-.064.2.329.329,0,0,1-.174.125,2.565,2.565,0,0,1-.56.035h-.212Z" transform="translate(-209.569 -42.108)" fill="#005daa"/>
    <rect id="Rectangle_24" data-name="Rectangle 24" width="44.341" height="1.724" transform="translate(171.038 47.996)" fill="#64c1be"/>
    <rect id="Rectangle_25" data-name="Rectangle 25" width="52.645" height="1.671" transform="translate(97.658 47.943)" fill="#64c1be"/>
    <rect id="Rectangle_26" data-name="Rectangle 26" width="79.648" height="1.672" transform="translate(4.429 48.204)" fill="#64c1be"/>
    <path id="Path_79" data-name="Path 79" d="M.491,37.894C-.413,48.417.075,57.233.8,59.988s2.027,3.95,3.014.624a24.52,24.52,0,0,1,6.291-9.93c2.132-2.131,8.94-10.24,9.824-12.476,1.663-2.131-.416-6.653-1.976-4.574-.987,1.4-.259,3.9-1.455,5.874-1.045,1.874-2.481,3.6-7.52,8.958-1.607,1.461-5.5,6.013-5.819,7.059-1.436-1.583-1.1-3.895-1.047-5.355s.4-10.087.9-11.978c.486-1.851.924-3.7.145-4.431-.845-.792-1.338-.146-1.7.754a8.459,8.459,0,0,0-.967,3.379" transform="translate(0 -16.168)" fill="#005daa"/>
    <path id="Path_80" data-name="Path 80" d="M42.337,55.954c.638-1.508-.375-2.529-1-1.749A18.663,18.663,0,0,0,39.5,56.578a7.018,7.018,0,0,0-1.249,3.434,6.773,6.773,0,0,1-.593,3.278c-.343,1.094-1.779,6.712-.5,8.274s1.9,1.217,3.185.312,4.964-4.028,6.275-6.494c.936-1.561,1.467-2.685,1.78-2.778s.624.873,1.155,2.029,1.9,4.184.812,4.9c-.749.626-1.124.719-1.468.563s-.312-.719-1.092-.281-2.217,2.467-.937,2.935a3.3,3.3,0,0,0,3.809-.905c1.78-1.374,2.935-3.371,1.436-6.526-1.061-2.248-2.9-5-.405-7.368a5.689,5.689,0,0,1,4.59-1.779c.124-1.749-.374-2.124-1.342-2.03s-3.373.063-5.746,3.872c-1.124,2.561-4.121,8.4-7.086,10.335-2.217,1.373-3.9,2.248-3.5-.156s.823-4.393,3.717-12.239" transform="translate(-17.894 -26.347)" fill="#005daa"/>
    <path id="Path_81" data-name="Path 81" d="M49.1,40.225c.191.122.451.053.708.04.274-.346.339-3.716.143-5.356-.687-.948-1.987-.12-2.063.524-.047.392-.131,3.318,1.212,4.791" transform="translate(-23.381 -16.843)" fill="#005daa"/>
    <path id="Path_82" data-name="Path 82" d="M88.353,40.368c.192.122.452.053.708.04.275-.346.339-3.716.144-5.354-.688-.95-1.987-.121-2.063.523-.047.391-.132,3.317,1.211,4.79" transform="translate(-42.557 -16.913)" fill="#005daa"/>
    <path id="Path_83" data-name="Path 83" d="M127.892,40.134c.192.122.452.053.708.04.275-.346.34-3.716.143-5.355-.687-.949-1.986-.12-2.062.524-.047.392-.132,3.318,1.211,4.791" transform="translate(-61.871 -16.799)" fill="#005daa"/>
    <path id="Path_84" data-name="Path 84" d="M86.1,59.99c-.366-.219-3.211,4.509-5.961,5.835-1.572.727-2.4.727-3.2-.406-1.165-1.65.156-7.181.5-8.274a6.789,6.789,0,0,0,.593-3.278,7.025,7.025,0,0,1,1.248-3.434,18.7,18.7,0,0,1,1.842-2.373c.625-.78,1.637.241,1,1.749-2.894,7.845-3.31,9.833-3.716,12.239s.981,2.43,3.5.156a59.57,59.57,0,0,0,5.674-6.983c.846-1.511.794-2.556.426-2.574-3.87,1.064-4.355-2.341.465-2.245a28.994,28.994,0,0,0,2.342-7.181c.534-2.12,2.545-2.333,2.344-.677C92.78,44.879,90.89,49.531,91,49.776s6.717-.209,7.556-.245c.419.279.209.944-.875,1.189s-6.856,1.19-7.31,1.714-1.924,5.632-2.135,7.626-.734,5.771,3.5,2.8c3.219-2.273,4.1-3.242,2.808-.864-1.522,2.915-7.67,7.092-8.3,1.529a29.314,29.314,0,0,0-.14-3.533" transform="translate(-37.354 -20.246)" fill="#005daa"/>
    <path id="Path_85" data-name="Path 85" d="M158.261,65.441c-.805.452-3.037,1.852-4.39,2.706s-1.828,1.091-1.922.261,1.352-7.951,1.448-8.876,0-.784.736-1.97.5-3.323-.024-3.75c-1.994-1.709-5.1.5-7.144,2.729s-3.346,5.246-5.648,9.3c-4.3,6.36-8.015,5.463-5.6-3.157a44.652,44.652,0,0,1,2.728-7.715c.594-4.106-3.464-.712-4.77.879s-3.7,5.388-4.865,7.167-.119-2.23.379-4.366a7.837,7.837,0,0,1,1.875-3.8,1.508,1.508,0,0,0-.355-2.041c-.474-.238-.958-1.24-2.03.9s-1.317,5.388-1.862,7c-1.068,1.21-3.007,4.035-5.545,6.911-2.168,2.061-3.9,2.248-3.5-.158s.822-4.392,3.715-12.238c.64-1.508-.374-2.528-1-1.748a18.573,18.573,0,0,0-1.842,2.373,7.013,7.013,0,0,0-1.249,3.434,6.778,6.778,0,0,1-.593,3.278c-.343,1.092-1.806,6.823-.543,8.4,1.106,1.38,1.948,1.093,3.228.188s5.6-6.318,5.925-6.262c.546.1.522,2.752.522,4.367.166,1.377.688,2.3,1.709.142,2.919-6.456,4.511-8.447,5.886-10.205,1.188-1.519,1.377-.95,1.282-.119-.127,1.109-.38,1.472-.855,3.537-.451,2.232-.9,5.672-.119,7.856,1.994,4.272,6.646-1.685,7.335-2.492s.522-.286.972,2.135,1.994,1.448,2.778.831,4.51-5.648,4.937-6.242.5-.64.546-.071-.664,4.889-.925,6.623c-.76.664-4.8,3.868-7.643,6.218-3.3,2.824-4.106,3.8-5.6,6.954s1.969,4.415,3.607,4.462c5.056-.4,6.694-3.56,8.022-5.863s3.015-8.781,3.608-10.775c.854-.593,6.48-4.629,7.618-5.673s-.024-1.59-.831-1.14M143.37,85.765c-3.3,2.653-5.279.028-4.234-2.258,1.27-2.316,7.284-8.95,9.712-9.4.6-.112-1.722,9.006-5.477,11.66M151.4,59.028c-.479.691-.664,1.249-1.675,3a32.481,32.481,0,0,1-4.359,5.741c-1.622,1.675-1.356-1.622-.8-3.641s3.446-5.372,4.889-7.2c.4-.505,1.781-1.541,3-.9s.293,1.967-.053,2.206-.531.106-1.009.8" transform="translate(-56.544 -25.583)" fill="#005daa"/>
    <path id="Path_86" data-name="Path 86" d="M482.92,0a28.987,28.987,0,0,0-28.531,23.4l1.456,2.915a26.2,26.2,0,0,1,.434-2.888A27.077,27.077,0,0,1,482.92,2.135c15.018,0,27.192,11.939,27.192,26.668S497.938,55.471,482.92,55.471a27.5,27.5,0,0,1-12.827-3.147q-.9-.473-1.759-1.011l1.638,3.279A29.094,29.094,0,0,0,511.96,28.8,28.921,28.921,0,0,0,482.92,0" transform="translate(-221.96)" fill="#005daa"/>
  </g>
</svg>
