<?xml version="1.0" encoding="UTF-8" standalone="no"?>
<svg
   xmlns:dc="http://purl.org/dc/elements/1.1/"
   xmlns:cc="http://creativecommons.org/ns#"
   xmlns:rdf="http://www.w3.org/1999/02/22-rdf-syntax-ns#"
   xmlns:svg="http://www.w3.org/2000/svg"
   xmlns="http://www.w3.org/2000/svg"
   viewBox="0 0 153.92 142.72"
   height="142.72"
   width="153.92"
   xml:space="preserve"
   id="svg2"
   version="1.1"><metadata
     id="metadata8"><rdf:RDF><cc:Work
         rdf:about=""><dc:format>image/svg+xml</dc:format><dc:type
           rdf:resource="http://purl.org/dc/dcmitype/StillImage" /></cc:Work></rdf:RDF></metadata><defs
     id="defs6" /><g
     transform="matrix(1.3333333,0,0,-1.3333333,0,142.72)"
     id="g10"><g
       transform="scale(0.1)"
       id="g12"><path
         id="path14"
         style="fill:#233c72;fill-opacity:1;fill-rule:nonzero;stroke:none"
         d="m 850.281,1050.37 c 52.407,0 95.032,-42.63 95.032,-95.034 0,-52.402 -42.625,-95.035 -95.032,-95.035 -52.398,0 -95.039,42.633 -95.039,95.035 0,52.404 42.641,95.034 95.039,95.034 z m 0,-210.069 c 63.43,0 115.032,51.605 115.032,115.035 0,63.424 -51.602,115.034 -115.032,115.034 -63.433,0 -115.039,-51.61 -115.039,-115.034 0,-63.43 51.606,-115.035 115.039,-115.035" /><path
         id="path16"
         style="fill:#233c72;fill-opacity:1;fill-rule:nonzero;stroke:none"
         d="m 1050.35,451.172 c 0,-37.422 -27.93,-68.367 -64.022,-73.277 v 283.343 c 0,5.524 -4.473,10 -10,10 -5.527,0 -10,-4.476 -10,-10 V 31.0195 c 0,-6.0586 -4.941,-11 -11.015,-11 H 860.281 V 367.137 c 0,5.527 -4.468,10 -10,10 -5.523,0 -10,-4.473 -10,-10 V 20.0195 h -95.039 c -6.062,0 -11.004,4.9414 -11.004,11 v 563.5935 66.625 c 0,5.524 -4.472,10 -10,10 -5.527,0 -10,-4.476 -10,-10 v -66.625 c 0,-19.781 -7.695,-38.371 -21.679,-52.347 l -92.735,-92.727 c -6.367,-6.367 -15.015,-9.453 -23.683,-9.039 6.824,8.801 11.05,19.703 11.05,31.676 0,15.172 -6.64,28.719 -17.039,38.234 l 64.828,64.828 c 9.688,9.688 15.235,23.09 15.235,36.778 v 91.234 c 0,68.32 82.273,116.043 200.066,116.043 117.793,0 200.069,-47.723 200.069,-116.043 z M 514.172,440.156 h -84.031 c -40.821,0 -74.028,33.211 -74.028,74.032 v 42.011 c 0,5.524 -4.476,10 -10,10 -5.523,0 -10,-4.476 -10,-10 V 438.133 c 0,-14.539 6.149,-28.516 16.871,-38.34 l 85.168,-78.074 c 15.254,-13.977 24.004,-33.867 24.004,-54.563 V 73.0352 c 0,-29.2344 -23.781,-53.0157 -53.019,-53.0157 -29.239,0 -53.024,23.7813 -53.024,53.0157 V 218.887 c 0,11.347 -6.179,21.777 -16.136,27.215 l -133.532,72.961 c -37.257,20.351 -60.398,59.375 -60.398,101.824 v 93.301 c 0,110.32 70.902,200.07 158.055,200.07 h 21.003 c 52.407,0 95.036,-42.633 95.036,-95.035 v -84.028 c 0,-17.097 13.914,-31.007 31.011,-31.007 h 84.024 c 17.656,0 32.015,-14.364 32.015,-32.012 0,-17.656 -14.359,-32.02 -32.015,-32.02 z M 206.895,54.9219 C 196.891,27.4492 166.414,13.2383 138.93,23.2305 c -27.469,10 -41.6839,40.4883 -31.508,68.4961 l 67.504,224.7384 c 6.738,-5.621 14.054,-10.66 21.929,-14.961 l 70.954,-38.77 z M 461.648,861.309 c 46.614,0 84.536,-37.922 84.536,-84.532 0,-46.613 -37.922,-84.531 -84.536,-84.531 -46.609,0 -84.531,37.918 -84.531,84.531 0,46.61 37.922,84.532 84.531,84.532 z m 388.633,-22.016 c -129.566,0 -220.066,-55.945 -220.066,-136.043 v -91.234 c 0,-8.422 -3.418,-16.676 -9.375,-22.637 l -68.371,-68.371 c -5.438,1.933 -11.199,3.18 -17.293,3.18 h -84.024 c -6.07,0 -11.011,4.937 -11.011,11.007 v 84.028 c 0,22.265 -6.465,43.004 -17.461,60.636 12.058,-4.867 25.191,-7.613 38.968,-7.613 57.637,0 104.536,46.895 104.536,104.531 0,57.637 -46.899,104.532 -104.536,104.532 -57.632,0 -104.531,-46.895 -104.531,-104.532 0,-19.047 5.207,-36.863 14.145,-52.261 -14.145,6.226 -29.739,9.742 -46.157,9.742 h -21.003 c -98.18,0 -178.055,-98.723 -178.055,-220.07 v -93.301 c 0,-33.02 11.996,-64.223 32.785,-88.485 L 88.4531,98.0273 C 74.6758,60.1914 94.2578,18.2109 132.094,4.44141 c 8.195,-2.99219 16.59,-4.4023475 24.847,-4.4023475 29.868,0 58,18.5312375 68.942,48.6523375 l 59.887,204.2306 44.617,-24.379 c 3.535,-1.922 5.726,-5.625 5.726,-9.656 V 73.0352 c 0,-40.2657 32.758,-73.0156687 73.024,-73.0156687 40.261,0 73.019,32.7499687 73.019,73.0156687 V 267.156 c 0,26.289 -11.109,51.555 -30.492,69.309 L 366.5,414.539 c -6.602,6.047 -10.387,14.649 -10.387,23.594 v 18.137 c 17.227,-21.973 44.008,-36.114 74.028,-36.114 h 84.031 21.004 c 29.234,0 53.015,-23.781 53.015,-53.019 V 10.0195 c 0,-5.53122 4.481,-9.9999687 10,-9.9999687 5.532,0 10,4.4687487 10,9.9999687 V 367.137 c 0,21.375 -9.285,40.566 -23.964,53.933 10.996,1.407 21.535,6.118 29.738,14.328 l 92.734,92.727 c 2.727,2.727 5.196,5.633 7.539,8.617 V 31.0195 c 0,-17.0976 13.907,-30.9999687 31.004,-30.9999687 h 210.071 c 17.097,0 31.015,13.9023687 31.015,30.9999687 V 357.684 c 47.162,5.011 84.022,45.019 84.022,93.488 V 703.25 c 0,80.098 -90.495,136.043 -220.069,136.043" /></g></g></svg>