<?xml version="1.0" encoding="UTF-8" standalone="no"?>
<svg
   xmlns:dc="http://purl.org/dc/elements/1.1/"
   xmlns:cc="http://creativecommons.org/ns#"
   xmlns:rdf="http://www.w3.org/1999/02/22-rdf-syntax-ns#"
   xmlns:svg="http://www.w3.org/2000/svg"
   xmlns="http://www.w3.org/2000/svg"
   viewBox="0 0 150.74667 139.77333"
   height="139.77333"
   width="150.74667"
   xml:space="preserve"
   id="svg2"
   version="1.1"><metadata
     id="metadata8"><rdf:RDF><cc:Work
         rdf:about=""><dc:format>image/svg+xml</dc:format><dc:type
           rdf:resource="http://purl.org/dc/dcmitype/StillImage" /></cc:Work></rdf:RDF></metadata><defs
     id="defs6" /><g
     transform="matrix(1.3333333,0,0,-1.3333333,0,139.77333)"
     id="g10"><g
       transform="scale(0.1)"
       id="g12"><path
         id="path14"
         style="fill:#233c72;fill-opacity:1;fill-rule:nonzero;stroke:none"
         d="M 1126.13,676.469 966.051,783.188 v 172.89 c 0,5.52 -4.473,10 -10,10 H 832.652 c -5.527,0 -10,-4.48 -10,-10 V 878.785 L 570.84,1046.66 c -3.36,2.24 -7.735,2.24 -11.094,0 L 4.45313,676.469 c -4.593755,-3.063 -5.83594,-9.274 -2.77344,-13.867 3.05469,-4.594 9.26561,-5.84 13.86721,-2.774 l 66.7187,44.477 V 51.1563 c 0,-5.5274 4.4766,-10.0079 10,-10.0079 5.5235,0 10.0004,4.4805 10.0004,10.0079 V 717.641 L 565.293,1026.32 827.105,851.781 c 3.055,-2.047 7.02,-2.238 10.262,-0.5 3.254,1.742 5.285,5.133 5.285,8.821 v 85.976 H 946.051 V 777.836 c 0,-3.348 1.668,-6.465 4.453,-8.32 l 77.816,-51.875 V 51.1563 c 0,-5.5274 4.47,-10.0079 10,-10.0079 5.52,0 10,4.4805 10,10.0079 V 704.305 l 66.71,-44.477 c 1.71,-1.14 3.64,-1.68 5.54,-1.68 3.23,0 6.41,1.563 8.33,4.454 3.07,4.593 1.83,10.804 -2.77,13.867" /><path
         id="path16"
         style="fill:#233c72;fill-opacity:1;fill-rule:nonzero;stroke:none"
         d="M 863.785,184.555 H 719.254 v 113.398 c 0,39.844 32.422,72.266 72.266,72.266 39.843,0 72.265,-32.422 72.265,-72.266 z m -164.883,164.433 -113.058,0.059 c -39.836,0.027 -72.25,32.461 -72.25,72.293 v 41.144 c 0,5.528 -4.477,10 -10,10 -5.524,0 -10,-4.472 -10,-10 V 421.34 c 0,-25.098 10.078,-47.899 26.402,-64.551 0.121,-0.144 0.246,-0.293 0.379,-0.437 l 77.18,-82.657 c 12.527,-13.418 19.433,-30.929 19.433,-49.308 V 71.7227 c 0,-28.5039 -23.195,-51.7032 -51.695,-51.7032 -28.508,0 -51.699,23.1993 -51.699,51.7032 V 185.57 c 0,3.653 -1.996,7.02 -5.203,8.778 l -141.438,77.285 c -36.406,19.894 -59.023,58.027 -59.023,99.512 v 50.207 c 0,107.89 69.32,195.664 154.531,195.664 h 20.566 c 51.188,0 92.828,-41.649 92.828,-92.832 v -82.266 c 0,-16.855 13.719,-30.566 30.575,-30.566 l 92.472,0.019 c 0.008,0 0.008,0 0.02,0 8.32,0 16.152,-3.242 22.039,-9.133 5.898,-5.886 9.141,-13.718 9.141,-22.05 0,-8.34 -3.243,-16.172 -9.141,-22.071 -5.898,-5.887 -13.719,-9.129 -22.051,-9.129 -0.008,0 -0.008,0 -0.008,0 z M 367.094,54.0547 c -4.727,-12.9766 -14.219,-23.3359 -26.735,-29.1641 -12.507,-5.8398 -26.546,-6.4609 -39.535,-1.7304 -12.972,4.7187 -23.336,14.2187 -29.168,26.7265 -5.836,12.5196 -6.453,26.5625 -1.73,39.5391 l 65.418,179.7302 c 6.746,-5.683 14.101,-10.754 22.019,-15.082 l 68.844,-37.613 z M 596.137,781.547 c 45.519,0 82.551,-37.031 82.551,-82.551 0,-45.516 -37.032,-82.547 -82.551,-82.547 -45.512,0 -82.543,37.031 -82.543,82.547 0,45.52 37.031,82.551 82.543,82.551 z M 791.52,390.219 c -14.907,0 -28.954,-3.633 -41.426,-9.938 -0.024,13.637 -5.336,26.453 -14.992,36.098 -9.668,9.668 -22.508,14.992 -36.18,14.992 -0.012,0 -0.02,0 -0.02,0 l -92.472,-0.019 c -5.828,0 -10.575,4.734 -10.575,10.566 v 82.266 c 0,29.8 -11.699,56.859 -30.632,77.05 9.761,-3.093 20.14,-4.785 30.914,-4.785 56.543,0 102.551,46 102.551,102.547 0,56.551 -46.008,102.551 -102.551,102.551 -56.543,0 -102.543,-46 -102.543,-102.551 0,-26.23 9.984,-50.117 26.246,-68.269 -11.559,4.003 -23.91,6.289 -36.813,6.289 h -20.566 c -96.234,0 -174.531,-96.75 -174.531,-215.664 v -50.207 c 0,-32.204 11.636,-62.641 31.82,-86.375 L 251.137,96.2617 C 244.586,78.2656 245.434,58.793 253.523,41.4414 261.621,24.0703 275.992,10.9102 293.984,4.37109 301.992,1.44922 310.281,0 318.559,0 c 10.324,0 20.617,2.26172 30.254,6.76172 17.355,8.08988 30.523,22.45708 37.07,40.45708 l 58.07,159.5432 49.641,-27.121 V 71.7227 c 0,-39.5313 32.164,-71.7031687 71.699,-71.7031687 39.535,0 71.695,32.1718687 71.695,71.7031687 V 224.387 c 0,23.457 -8.82,45.82 -24.824,62.961 l -39.863,42.695 c 4.418,-0.656 8.933,-0.996 13.523,-0.996 l 113.067,-0.059 c 0,0 0.011,0 0.019,0 2.055,0 4.035,0.352 6.043,0.59 -3.621,-9.883 -5.699,-20.504 -5.699,-31.625 V 10.0195 c 0,-5.53122 4.473,-9.9999687 10,-9.9999687 5.527,0 10,4.4687487 10,9.9999687 V 164.555 H 863.785 V 10.0195 c 0,-5.53122 4.473,-9.9999687 10,-9.9999687 5.528,0 10,4.4687487 10,9.9999687 V 297.953 c 0,50.879 -41.387,92.266 -92.265,92.266" /></g></g></svg>